<?xml version="1.0" standalone="no"?>
<!DOCTYPE svg PUBLIC "-//W3C//DTD SVG 20010904//EN"
 "http://www.w3.org/TR/2001/REC-SVG-20010904/DTD/svg10.dtd">
<svg version="1.0" xmlns="http://www.w3.org/2000/svg"
 width="997.000000pt" height="997.000000pt" viewBox="0 0 997.000000 997.000000"
 preserveAspectRatio="xMidYMid meet">

<g transform="translate(0.000000,997.000000) scale(0.100000,-0.100000)"
fill="#000000" stroke="none">
<path d="M4855 8924 c-356 -51 -669 -146 -1034 -313 -517 -237 -952 -600
-1277 -1066 -168 -241 -340 -544 -441 -780 -37 -84 -172 -468 -288 -814 -68
-203 -185 -463 -256 -569 -17 -26 -73 -89 -122 -139 -71 -72 -89 -95 -79 -105
9 -9 18 -6 38 13 23 20 26 21 20 5 -6 -17 -5 -18 16 -4 13 8 47 44 76 79 142
171 173 210 235 285 36 45 95 127 131 183 36 55 69 101 72 101 3 0 0 -10 -8
-22 -8 -13 -47 -84 -88 -158 -40 -74 -99 -180 -130 -235 -32 -55 -95 -165
-140 -245 -46 -80 -102 -176 -126 -215 -92 -153 -235 -418 -301 -560 -122
-260 -272 -694 -319 -920 -21 -100 -29 -371 -15 -477 24 -182 58 -276 185
-513 73 -137 110 -194 210 -320 156 -196 180 -220 640 -639 146 -133 258 -227
425 -356 54 -42 122 -96 152 -121 69 -59 130 -99 148 -99 11 0 10 4 -5 16 -10
8 -13 13 -6 9 6 -3 12 -3 12 2 0 4 -23 23 -50 41 -89 61 -196 158 -286 262
-111 127 -151 184 -271 385 -53 88 -117 194 -143 235 -58 93 -66 108 -53 95
76 -76 263 -279 309 -336 73 -89 272 -360 326 -443 21 -33 38 -67 38 -78 0
-10 5 -18 10 -18 16 0 13 19 -30 187 -77 298 -151 485 -259 657 -73 115 -81
131 -40 81 18 -22 85 -92 149 -156 128 -127 257 -219 373 -267 116 -48 311
-85 457 -87 76 -1 134 -6 148 -14 28 -15 29 0 1 25 -48 43 -164 261 -260 485
-96 226 -140 339 -134 339 11 0 196 -291 254 -398 124 -230 423 -888 438 -963
3 -19 9 -26 13 -19 4 7 3 29 -2 50 -10 36 -8 42 25 82 46 57 98 153 147 272
115 283 129 534 42 772 -23 61 -27 86 -20 109 15 52 20 246 10 365 l-10 115
41 70 c39 65 157 194 199 216 14 8 18 6 18 -10 0 -17 -32 -212 -45 -279 -5
-24 -4 -23 14 9 48 87 103 319 105 446 0 40 1 73 2 73 1 0 57 -26 125 -58 161
-76 319 -132 319 -113 0 3 -35 24 -77 45 -138 68 -386 208 -453 255 -226 160
-406 406 -640 876 -51 102 -63 139 -84 245 -14 69 -27 159 -31 200 -3 41 -8
85 -11 97 -3 18 7 28 63 59 121 68 433 291 473 338 19 24 31 19 24 -8 -18 -73
69 -269 159 -358 148 -148 492 -243 701 -194 139 33 272 132 321 238 56 124
77 271 50 363 -22 78 -103 202 -172 265 -62 56 -82 60 -35 6 41 -47 112 -170
134 -231 23 -65 23 -155 -1 -241 -38 -141 -74 -191 -180 -254 -144 -85 -293
-93 -505 -24 -175 56 -272 123 -331 228 -19 35 -35 66 -35 69 0 4 28 -13 63
-37 194 -134 329 -163 533 -116 89 21 110 35 39 26 -80 -10 -85 -10 -188 2
-149 18 -336 105 -434 203 -35 34 -43 49 -43 78 0 63 18 105 64 150 l45 44
103 1 c69 0 129 -6 183 -18 79 -19 80 -19 45 -29 -119 -32 -190 -98 -190 -177
0 -42 36 -115 72 -145 66 -56 176 -53 257 7 74 54 100 149 62 222 -11 22 -19
42 -17 44 11 10 116 -58 173 -112 66 -61 73 -78 48 -126 -19 -37 -4 -39 24 -4
27 35 26 57 -4 102 -78 115 -174 179 -355 237 -71 23 -109 28 -231 32 l-147 5
77 107 c43 58 92 132 110 163 18 32 35 59 39 62 12 6 262 -40 337 -63 39 -11
118 -40 178 -65 102 -42 135 -44 105 -9 -16 19 -110 63 -224 103 -85 30 -255
60 -338 60 -25 0 -46 2 -46 4 0 2 27 50 60 105 33 56 95 166 137 244 42 78
111 198 153 267 42 69 101 166 130 215 85 144 302 436 376 505 83 77 147 119
263 170 162 71 278 90 431 70 169 -22 346 -92 432 -172 17 -16 39 -28 49 -28
10 0 58 20 106 45 199 102 355 101 504 -3 94 -65 123 -132 158 -363 59 -379
82 -487 152 -714 43 -136 114 -294 172 -381 19 -29 37 -71 41 -95 12 -81 6
-263 -12 -374 l-18 -110 -72 -99 c-200 -274 -317 -541 -443 -1006 -76 -285
-128 -434 -194 -564 l-60 -120 -110 -83 c-113 -86 -261 -180 -328 -208 -69
-29 -271 -83 -423 -114 -245 -50 -409 -63 -635 -53 l-194 9 -109 42 c-60 23
-116 40 -125 38 -24 -5 180 -105 248 -121 46 -11 108 -12 302 -5 134 4 254 11
267 15 28 8 28 -1 -2 -68 -54 -121 -87 -278 -70 -335 7 -24 8 -20 14 33 4 34
17 89 29 122 l23 60 80 22 c183 49 310 51 476 5 51 -14 102 -25 113 -25 10 0
19 -4 19 -8 0 -10 -71 -220 -101 -297 -13 -33 -32 -66 -43 -74 -19 -14 -19
-15 0 -22 14 -5 25 0 42 19 17 21 24 24 31 14 6 -11 9 -9 13 6 7 24 50 47 180
96 171 64 211 69 523 71 272 2 312 5 460 40 27 7 20 -3 -55 -79 -46 -47 -79
-86 -72 -86 19 0 96 55 181 128 46 41 71 57 67 45 -11 -34 16 -46 45 -20 14
12 19 18 12 13 -19 -13 -16 -1 11 39 14 20 32 57 42 83 10 26 20 50 24 55 9
10 1 -100 -15 -215 -8 -54 -12 -105 -9 -113 4 -9 0 -23 -9 -33 -8 -9 -22 -44
-32 -77 -54 -193 -77 -253 -102 -264 -25 -11 -27 -39 -3 -33 11 3 11 0 0 -12
-18 -23 0 -20 25 4 12 11 59 38 104 60 45 22 113 60 149 83 88 57 246 191 305
258 l48 54 -72 -140 c-40 -77 -83 -155 -96 -172 -36 -50 -10 -39 37 15 117
132 260 443 304 664 12 56 37 118 91 225 41 81 74 146 75 143 0 -7 -154 -670
-173 -744 -12 -46 -26 -68 -66 -108 -58 -58 -60 -74 -5 -32 36 28 37 28 32 6
-8 -30 10 -18 25 18 7 16 66 75 132 130 247 210 348 324 430 489 107 215 149
412 149 706 1 204 -10 285 -60 434 -39 115 -65 166 -247 466 -144 238 -237
404 -237 422 0 2 9 1 20 -2 11 -4 20 -2 20 4 0 6 -12 11 -26 11 -22 0 -30 10
-60 77 -69 151 -111 292 -129 432 -9 73 -15 135 -12 138 3 2 50 -24 104 -58
128 -82 293 -163 406 -200 50 -16 98 -36 107 -43 25 -23 102 -58 108 -50 4 4
3 8 -3 10 -5 2 -26 14 -45 26 l-35 22 30 6 30 7 -27 6 c-16 4 -38 9 -50 12
-48 12 -300 353 -396 535 -27 52 -82 181 -122 285 -39 105 -75 199 -80 210
-16 36 -59 169 -80 250 -49 185 -116 462 -125 520 -10 59 -92 339 -122 415
-40 101 -136 286 -203 389 -133 204 -274 347 -489 493 -200 136 -388 218 -561
244 -168 25 -447 15 -609 -22 -57 -13 -66 -13 -85 1 -149 110 -281 165 -476
200 -91 16 -490 30 -565 19z m-498 -3600 c-3 -3 -12 -4 -19 -1 -8 3 -5 6 6 6
11 1 17 -2 13 -5z m-107 -58 c0 -2 -7 -7 -16 -10 -8 -3 -12 -2 -9 4 6 10 25
14 25 6z m190 -47 c7 -11 9 -32 6 -45 -8 -31 20 -34 29 -3 4 11 9 18 12 15 10
-10 -17 -69 -43 -91 -26 -22 -102 -51 -110 -42 -3 3 18 13 45 23 53 19 60 34
14 28 -24 -4 -25 -3 -8 5 17 8 14 10 -17 10 l-38 1 35 49 c19 26 35 53 35 60
0 19 29 12 40 -10z m-185 -9 c-11 -5 -33 -8 -50 -8 l-30 0 30 8 c17 4 39 8 50
8 l20 1 -20 -9z m33 -45 c-9 -10 -98 -22 -103 -15 -3 5 1 11 7 13 17 7 103 8
96 2z m57 -75 c-11 -5 -29 -9 -40 -9 l-20 0 20 9 c11 5 29 9 40 9 l20 0 -20
-9z m-73 -22 c-9 -9 -9 -15 1 -27 6 -9 1 -7 -11 4 -22 18 -22 20 -5 26 26 11
28 10 15 -3z"/>
<path d="M6262 5491 c-79 -16 -146 -32 -149 -35 -16 -15 14 -16 132 -5 74 7
193 9 284 6 131 -4 175 -10 271 -36 102 -26 279 -83 335 -106 14 -6 17 -5 10
3 -21 23 -226 116 -340 155 -114 38 -127 40 -260 43 -122 3 -158 0 -283 -25z"/>
<path d="M6630 5330 c0 -5 28 -28 63 -51 34 -24 96 -77 138 -118 59 -59 81
-89 97 -134 22 -57 29 -122 14 -115 -4 2 -42 22 -84 46 -117 65 -177 83 -303
89 -219 11 -441 -63 -498 -166 -17 -33 -18 -37 -3 -68 26 -54 40 -44 36 25 -2
41 16 63 79 95 100 52 251 87 366 86 l50 -1 -32 -14 c-70 -30 -143 -131 -143
-196 1 -57 33 -113 82 -142 25 -14 59 -29 76 -32 41 -8 41 -19 1 -33 -44 -15
-136 -13 -184 4 -45 16 -75 19 -75 7 0 -23 52 -54 115 -67 141 -29 307 15 453
122 42 31 42 12 1 -51 -40 -60 -100 -109 -180 -145 -104 -47 -175 -64 -240
-58 -171 18 -373 165 -446 324 -75 163 -66 373 22 503 58 86 41 97 -34 22
-132 -132 -147 -443 -30 -627 78 -124 169 -203 310 -269 138 -66 255 -66 408
-1 86 36 130 65 188 124 67 68 114 158 137 263 3 14 18 40 32 57 19 23 22 31
10 31 -22 0 -26 11 -31 84 -15 196 -126 344 -297 398 -66 20 -98 23 -98 8z
m206 -395 l114 -55 0 -39 c0 -64 -14 -86 -80 -126 -34 -20 -63 -35 -66 -32 -2
2 0 16 5 31 20 51 16 131 -10 183 -19 39 -34 53 -79 76 -97 50 -5 19 116 -38z
m-219 -68 c1 -25 -3 -37 -12 -37 -7 0 -20 -3 -28 -6 -13 -5 -13 1 0 41 18 53
37 54 40 2z m131 18 c7 -15 8 -25 2 -25 -6 0 -10 -7 -10 -15 0 -8 -7 -15 -15
-15 -11 0 -12 5 -6 23 5 14 5 30 0 40 -7 12 -6 17 4 17 8 0 19 -11 25 -25z
m22 -45 c0 -5 -5 -10 -11 -10 -5 0 -7 5 -4 10 3 6 8 10 11 10 2 0 4 -4 4 -10z
m-5 -124 c-16 -32 -40 -49 -108 -75 -24 -9 -35 -5 -104 43 -81 55 -103 86 -61
86 19 0 20 -2 8 -10 -13 -9 -13 -12 3 -24 14 -11 27 -12 50 -5 18 5 49 8 69 7
22 -1 44 4 55 14 10 9 26 18 36 19 10 2 18 9 17 14 -1 6 -9 8 -18 7 -9 -2 -14
-1 -11 2 4 4 19 9 35 12 16 3 31 8 34 11 13 13 9 -71 -5 -101z m-145 90 c0 -2
-3 -11 -6 -20 -9 -23 -34 -20 -34 4 0 13 7 20 20 20 11 0 20 -2 20 -4z"/>
<path d="M6580 4718 c-11 -4 -20 -12 -20 -17 0 -15 36 -32 57 -28 50 10 133
40 133 48 0 11 -138 8 -170 -3z"/>
<path d="M5432 5070 c-44 -7 -79 -31 -69 -47 4 -6 59 -13 123 -17 65 -3 134
-9 155 -12 l38 -6 -23 -37 c-58 -92 -67 -178 -40 -351 15 -95 15 -105 -1 -148
-19 -50 -93 -172 -128 -209 -33 -36 -3 -27 51 16 59 47 127 147 142 210 8 37
7 72 -9 175 -17 114 -17 136 -5 193 7 35 23 81 35 102 l21 38 62 -13 c33 -7
70 -16 81 -20 18 -7 19 -6 5 11 -33 40 -230 107 -345 117 -27 3 -69 2 -93 -2z"/>
<path d="M4742 3853 c5 -26 57 -51 164 -79 92 -24 109 -25 229 -18 200 11 202
11 283 -30 93 -47 204 -65 272 -46 l45 14 -65 8 c-66 9 -150 36 -255 81 -57
25 -69 27 -236 27 -163 0 -186 2 -295 30 -138 35 -147 36 -142 13z"/>
<path d="M8760 716 c0 -22 21 -33 161 -85 103 -38 129 -51 114 -57 -17 -6
-124 -77 -186 -123 -16 -11 -26 -11 -66 3 -53 18 -73 20 -73 7 0 -5 20 -17 45
-27 25 -9 45 -19 45 -22 0 -3 -30 -37 -67 -77 -201 -211 -238 -263 -196 -280
13 -4 29 5 56 35 40 43 68 58 121 65 17 2 51 6 76 10 25 3 111 -1 190 -10 185
-19 320 -20 365 -1 19 8 35 19 35 24 0 14 -59 21 -130 15 -35 -3 -125 1 -199
7 -142 13 -309 15 -342 5 -10 -4 -19 -3 -19 2 0 4 40 50 89 101 l88 94 99 -16
c54 -9 113 -19 129 -22 17 -4 27 -3 23 1 -4 4 -38 14 -75 21 -37 8 -85 19
-107 25 l-39 10 54 39 c30 22 79 53 110 70 58 30 73 48 60 68 -11 19 -361 133
-361 118z"/>
</g>
</svg>
